<svg width="830.41865" height="674.11409" xmlns="http://www.w3.org/2000/svg" data-name="Layer 1">

 <g>
  <title>Layer 1</title>
  <path fill="#ccc" d="m415.16882,599.99998l0,-2c3.977,0 8.013,-0.083 12,-0.242l0.08,2c-4.01402,0.159 -8.07701,0.24106 -12.08,0.242zm-12.075,-0.231c-4,-0.156 -8.055,-0.4 -12.057,-0.711l0.157,-1.994c3.976,0.314 8.006,0.552 11.978,0.707l-0.078,1.998zm36.21,-0.737l-0.159,-1.994c3.969,-0.317 7.985,-0.721 11.938,-1.2l0.24,1.986c-3.979,0.481 -8.022,0.886 -12.019,1.206l0,0.002zm-60.287,-1.166c-3.988,-0.478 -8.012,-1.041 -11.962,-1.675l0.317,-1.975c3.923,0.63 7.921,1.189 11.882,1.663l-0.237,1.987zm84.265,-1.729l-0.319,-1.975c3.922,-0.634 7.894,-1.359 11.8,-2.154l0.4,1.959c-3.935,0.8 -7.934,1.531 -11.882,2.17l0.001,0zm-108.112,-2.1c-3.936,-0.8 -7.9,-1.685 -11.789,-2.636l0.476,-1.943c3.861,0.946 7.8,1.827 11.709,2.618l-0.396,1.961zm131.781,-2.717l-0.479,-1.941c3.873,-0.953 7.772,-2 11.59,-3.1l0.557,1.922c-3.845,1.113 -7.771,2.164 -11.668,3.123l0,-0.004zm-155.242,-3.03c-3.856,-1.113 -7.738,-2.318 -11.536,-3.582l0.632,-1.9c3.773,1.256 7.628,2.453 11.459,3.559l-0.555,1.923zm178.441,-3.689l-0.634,-1.9c3.775,-1.262 7.577,-2.618 11.3,-4.033l0.711,1.869c-3.749,1.425 -7.577,2.791 -11.378,4.061l0.001,0.003zm-201.39,-3.952c-3.752,-1.422 -7.531,-2.941 -11.233,-4.519l0.784,-1.84c3.677,1.566 7.432,3.076 11.159,4.487l-0.71,1.872zm223.94,-4.612l-0.785,-1.84c3.656,-1.562 7.327,-3.217 10.91,-4.921l0.859,1.807c-3.607,1.715 -7.3,3.382 -10.984,4.954zm-246.21,-4.87891c-3.633,-1.725 -7.275,-3.545 -10.825,-5.411l0.931,-1.77c3.526,1.853 7.143,3.661 10.751,5.374l-0.857,1.807zm267.977,-5.475l-0.932,-1.77c3.522,-1.854 7.051,-3.8 10.486,-5.789l1,1.73c-3.459,2 -7.011,3.962 -10.557,5.828l0.003,0.001zm-289.397,-5.779c-3.485,-2.015 -6.966,-4.122 -10.347,-6.264l1.07,-1.689c3.357,2.127 6.815,4.221 10.277,6.223l-1,1.73zm310.269,-6.3l-1.07,-1.689c3.353,-2.124 6.715,-4.35 9.993,-6.616l1.137,1.645c-3.3,2.282 -6.685,4.523 -10.06,6.661l0,-0.001zm-330.7,-6.638c-3.307,-2.285 -6.606,-4.664 -9.805,-7.071l1.2,-1.6c3.178,2.391 6.455,4.754 9.74,7.024l-1.135,1.647zm350.551,-7.082l-1.2,-1.6c3.171,-2.385 6.346,-4.874 9.437,-7.4l1.266,1.549c-3.111,2.542 -6.308,5.048 -9.5,7.448l-0.003,0.003zm-369.864,-7.446c-3.105,-2.537 -6.2,-5.172 -9.2,-7.832l1.326,-1.5c2.982,2.642 6.058,5.26 9.142,7.779l-1.268,1.553zm388.558,-7.827l-1.326,-1.5c2.979,-2.641 5.946,-5.378 8.817,-8.135l1.385,1.443c-2.89,2.774 -5.876,5.529 -8.876,8.188l0,0.004zm-406.641,-8.2c-2.885,-2.771 -5.759,-5.645 -8.543,-8.539l1.441,-1.387c2.766,2.876 5.621,5.73 8.487,8.482l-1.385,1.444zm424.061,-8.531l-1.441,-1.387c2.757,-2.867 5.5,-5.833 8.143,-8.816l1.5,1.328c-2.664,3 -5.422,5.988 -8.2,8.875l-0.002,0zm-440.8,-8.879c-2.667,-3.006 -5.3,-6.1 -7.831,-9.192l1.549,-1.266c2.512,3.073 5.129,6.146 7.778,9.13l-1.496,1.328zm456.832,-9.194l-1.549,-1.266c2.527,-3.09 5.021,-6.268 7.414,-9.444l1.6,1.2c-2.408,3.2 -4.92,6.4 -7.463,9.507l-0.002,0.003zm-472.116,-9.492c-2.41,-3.2 -4.788,-6.491 -7.066,-9.783l1.645,-1.139c2.263,3.271 4.625,6.54 7.019,9.719l-1.598,1.203zm486.656,-9.817l-1.645,-1.137c2.271,-3.285 4.5,-6.654 6.634,-10.014l1.689,1.07c-2.14508,3.38611 -4.39209,6.7771 -6.67908,10.08411l0.00108,-0.00311zm-500.38602,-10.02003c-2.143,-3.379 -4.248,-6.849 -6.255,-10.313l1.73,-1c1.994,3.441 4.085,6.888 6.213,10.244l-1.688,1.069zm513.338,-10.4l-1.73,-1c2,-3.46 3.956,-7 5.809,-10.521l1.77,0.932c-1.864,3.544 -3.832,7.107 -5.848,10.591l-0.001,-0.002zm-525.426,-10.47c-1.863,-3.538 -3.681,-7.164 -5.4,-10.777l1.806,-0.859c1.709,3.589 3.515,7.19 5.365,10.705l-1.771,0.931zm536.688,-10.942l-1.807,-0.859c1.712,-3.6 3.375,-7.289 4.941,-10.961l1.84,0.785c-1.574,3.69194 -3.25198,7.409 -4.97402,11.03493l0.00002,0.00007zm-547.054,-10.815c-1.575,-3.684 -3.093,-7.441 -4.511,-11.17l1.869,-0.711c1.409,3.7 2.917,7.436 4.481,11.094l-1.839,0.787zm556.554,-11.453l-1.87,-0.709c1.418,-3.741 2.777,-7.555 4.038,-11.333l1.9,0.633c-1.27298,3.805 -2.64102,7.64293 -4.06802,11.409l0.00002,0zm-565.13,-11.093c-1.273,-3.8 -2.485,-7.682 -3.6,-11.53l1.921,-0.557c1.109,3.822 2.313,7.676 3.578,11.452l-1.899,0.635zm572.783,-11.852l-1.922,-0.555c1.1,-3.816 2.146,-7.716 3.1,-11.592l1.941,0.477c-0.96001,3.903 -2.00902,7.82894 -3.11901,11.67l0.00001,0zm-579.517,-11.345c-0.961,-3.895 -1.854,-7.858 -2.656,-11.783l1.96,-0.4c0.8,3.9 1.683,7.837 2.637,11.705l-1.941,0.478zm585.27695,-12.11l-1.961,-0.4c0.791,-3.9 1.514,-7.867 2.148,-11.8l1.975,0.318c-0.639,3.963 -1.366,7.961 -2.162,11.884l0,-0.002zm-590.11294,-11.555c-0.641,-3.948 -1.211,-7.972 -1.695,-11.959l1.985,-0.24c0.48,3.961 1.047,7.957 1.684,11.879l-1.974,0.32zm593.953,-12.293l-1.986,-0.238c0.476,-3.959 0.877,-7.976 1.191,-11.938l1.994,0.158c-0.317,3.989 -0.721,8.033 -1.2,12.018l0.001,0zm-596.853,-11.682c-0.323,-3.995 -0.569,-8.051 -0.731,-12.058l2,-0.081c0.162,3.979 0.406,8.009 0.727,11.978l-1.996,0.161zm598.778,-12.391l-2,-0.079c0.156,-3.985 0.236,-8.021 0.236,-12l0,-0.663l2,0l0,0.658c-0.001,4.009 -0.08106,8.071 -0.239,12.084l0.003,0zm-597.766,-11.744l-2,0l0,-0.336c0,-3.9 0.076,-7.853 0.226,-11.739l2,0.077c-0.148,3.861 -0.224,7.786 -0.224,11.666l-0.002,0.332zm595.73606,-12.988c-0.165,-3.971 -0.413,-8 -0.739,-11.977l1.994,-0.163c0.327,4 0.577,8.059 0.743,12.057l-1.998,0.083zm-594.811,-10.988l-1.994,-0.156c0.314,-4 0.714,-8.049 1.187,-12.021l1.986,0.236c-0.47007,3.94594 -0.86607,7.96294 -1.17906,11.94094l0.00006,0.00006zm592.855,-12.925c-0.482,-3.944 -1.053,-7.94 -1.7,-11.877l1.975,-0.323c0.647,3.963 1.223,7.986 1.707,11.958l-1.982,0.242zm-590.02,-10.9l-1.975,-0.316c0.634,-3.96 1.357,-7.959 2.15,-11.886l1.96,0.4c-0.788,3.9 -1.506,7.873 -2.136,11.807l0.001,-0.005zm586.147,-12.779c-0.8,-3.908 -1.694,-7.845 -2.65,-11.7l1.941,-0.481c0.963,3.883 1.86,7.847 2.668,11.781l-1.959,0.4zm-581.4,-10.739l-1.943,-0.475c0.951,-3.893 2,-7.82 3.105,-11.675l1.922,0.553c-1.10294,3.832 -2.139,7.733 -3.08393,11.599l-0.00007,-0.002zm575.628,-12.548c-1.113,-3.82 -2.32,-7.672 -3.59,-11.449l1.9,-0.637c1.277,3.8 2.493,7.68 3.613,11.526l-1.923,0.56zm-568.99191,-10.506l-1.9,-0.631c1.266,-3.808 2.629,-7.648 4.052,-11.414l1.871,0.707c-1.41217,3.73994 -2.76617,7.555 -4.02316,11.33794l0.00016,0.00006zm561.345,-12.237c-1.421,-3.72 -2.933,-7.451 -4.493,-11.09l1.838,-0.788c1.571,3.663 3.094,7.419 4.524,11.164l-1.869,0.714zm-552.838,-10.263l-1.841,-0.783c1.572,-3.695 3.242,-7.41 4.963,-11.04l1.807,0.856c-1.70917,3.60694 -3.36817,7.29694 -4.92917,10.96694l0.00017,0.00006zm543.409,-11.728c-1.712,-3.585 -3.521,-7.185 -5.376,-10.7l1.768,-0.934c1.869,3.538 3.69,7.162 5.413,10.771l-1.805,0.863zm-533.111,-9.995l-1.771,-0.929c1.864,-3.553 3.828,-7.119 5.836,-10.6l1.732,1c-1.994,3.459 -3.945,7.001 -5.796,10.53l-0.001,-0.001zm521.928,-11.181c-2,-3.443 -4.094,-6.887 -6.225,-10.238l1.688,-1.073c2.146,3.374 4.253,6.841 6.267,10.307l-1.73,1.004zm-509.915,-9.626l-1.69,-1.069c2.146,-3.392 4.389,-6.786 6.668,-10.087l1.646,1.136c-2.26291,3.28 -4.49094,6.651 -6.62293,10.021l-0.00107,-0.001zm497.0571,-10.594c-2.269,-3.269 -4.634,-6.537 -7.029,-9.71l1.6,-1.205c2.412,3.2 4.793,6.484 7.076,9.776l-1.647,1.139zm-483.414,-9.17l-1.6,-1.2c2.41,-3.208 4.917,-6.409 7.452,-9.516l1.55,1.265c-2.518,3.085 -5.009,6.266 -7.4,9.452l-0.002,-0.001zm468.969,-9.964c-2.522,-3.078 -5.144,-6.146 -7.788,-9.121l1.494,-1.329c2.663,2.995 5.3,6.084 7.841,9.183l-1.547,1.267zm-453.785,-8.635l-1.5,-1.325c2.655,-3 5.41,-5.989 8.187,-8.885l1.443,1.385c-2.759,2.876 -5.5,5.846 -8.133,8.825l0.003,0zm437.855,-9.292c-2.768,-2.872 -5.626,-5.722 -8.5,-8.473l1.384,-1.444c2.89,2.77 5.768,5.639 8.553,8.53l-1.437,1.387zm-421.244,-8.025l-1.387,-1.441c2.886,-2.777 5.87,-5.535 8.868,-8.2l1.328,1.5c-2.98306,2.643 -5.947,5.383 -8.81405,8.142l0.00505,-0.001zm403.917,-8.577c-2.988,-2.642 -6.067,-5.256 -9.15,-7.77l1.264,-1.55c3.1,2.53 6.2,5.162 9.211,7.822l-1.325,1.498zm-385.987,-7.35l-1.268,-1.547c3.1,-2.542 6.3,-5.051 9.491,-7.459l1.2,1.6c-3.16926,2.38894 -6.34125,4.88194 -9.42326,7.40594l0.00026,0.00006zm367.374,-7.817c-3.19,-2.395 -6.471,-4.754 -9.747,-7.014l1.135,-1.646c3.3,2.275 6.6,4.65 9.813,7.061l-1.201,1.599zm-348.231,-6.618l-1.14,-1.644c3.3,-2.285 6.679,-4.529 10.053,-6.672l1.072,1.688c-3.351,2.128 -6.711,4.357 -9.986,6.627l0.001,0.001zm328.46,-7.015c-3.372,-2.13 -6.832,-4.219 -10.285,-6.21l1,-1.732c3.475,2 6.958,4.107 10.354,6.251l-1.069,1.691zm-308.233,-5.83l-1,-1.73c3.458,-2.005 7.008,-3.97 10.55,-5.839l0.934,1.769c-3.52326,1.85594 -7.04926,3.80694 -10.48426,5.79994l0.00026,0.00006zm287.419,-6.171c-3.532,-1.851 -7.151,-3.655 -10.758,-5.362l0.855,-1.808c3.631,1.719 7.275,3.535 10.83,5.4l-0.927,1.77zm-266.238,-5l-0.861,-1.806c3.606,-1.719 7.3,-3.39 10.979,-4.966l0.787,1.838c-3.654,1.565 -7.324,3.225 -10.906,4.934l0.001,0zm244.508,-5.286c-3.676,-1.561 -7.432,-3.066 -11.164,-4.476l0.707,-1.871c3.757,1.418 7.539,2.935 11.238,4.506l-0.781,1.841zm-222.509,-4.135l-0.712,-1.869c3.742,-1.427 7.568,-2.8 11.372,-4.073l0.636,1.9c-3.77927,1.26294 -7.57926,2.62494 -11.29627,4.04194l0.00027,0.00006zm200.009,-4.36c-3.779,-1.253 -7.636,-2.446 -11.463,-3.545l0.553,-1.922c3.853,1.106 7.734,2.307 11.539,3.569l-0.629,1.898zm-177.262,-3.268l-0.559,-1.92c3.846,-1.119 7.771,-2.175 11.665,-3.138l0.48,1.941c-3.86726,0.95494 -7.76625,2.00394 -11.58626,3.11694l0.00026,0.00006zm154.2,-3.352c-3.861,-0.942 -7.8,-1.818 -11.712,-2.605l0.395,-1.961c3.937,0.792 7.9,1.675 11.792,2.623l-0.475,1.943zm-130.91,-2.408l-0.4,-1.959c3.921,-0.8 7.918,-1.537 11.88,-2.183l0.322,1.974c-3.938,0.639 -7.908,1.369 -11.803,2.166l0.001,0.002zm107.39,-2.326c-3.933,-0.627 -7.932,-1.183 -11.885,-1.65l0.235,-1.986c3.979,0.471 8,1.03 11.964,1.662l-0.314,1.974zm-83.711,-1.533l-0.242,-1.985c3.979,-0.484 8.021,-0.9 12.017,-1.219l0.162,1.993c-3.97,0.32 -7.986,0.73 -11.937,1.209l0,0.002zm59.886,-1.29c-3.965,-0.309 -8,-0.542 -11.979,-0.693l0.076,-2c4.01,0.152 8.066,0.387 12.058,0.7l-0.155,1.993zm-35.972,-0.655l-0.082,-2c4,-0.165 8.062,-0.252 12.076,-0.259l0,2c-3.985,0.007 -8.022,0.094 -11.995,0.257l0.001,0.002z" data-name="Path 945" id="af2b64c4-1d88-45b0-a92f-54de07391bf6-259"/>
  <path id="svg_1" fill="#3f3d56" d="m601.26932,673.28611l-372.00956,0c-18.59363,-0.02051 -33.7367,-14.27149 -33.757,-31.76856l0,-507.24751c0.02136,-17.49853 15.16443,-31.74951 33.75647,-31.769l372.00956,0c18.59375,0.01953 33.73682,14.27051 33.75708,31.76855l0,507.24745c-0.02124,17.49856 -15.16431,31.74953 -33.75655,31.76907z"/>
  <path id="svg_2" fill="#fff" d="m604.96484,642.7529l-379.40052,0c-6.01367,-0.00635 -10.91162,-4.354 -10.91894,-9.69238l0,-486.97461c0.00732,-5.33887 4.90527,-9.68652 10.91845,-9.69287l379.40049,0c6.01343,0.00635 10.91137,4.354 10.91894,9.69238l0,486.97462c-0.00754,5.33886 -4.90548,9.68651 -10.91842,9.69286z"/>
  <path fill="#e4e4e4" d="m415.26078,291.99304a59.973,59.973 0 0 1 -60,-59.946l0,-0.054c0,-0.126 0,-0.258 0.007,-0.384a60,60 0 1 1 60,60.383l-0.007,0l0,0.001zm0,-118.738a58.861,58.861 0 0 0 -58.726,58.393c-0.007,0.134 -0.007,0.244 -0.007,0.344a58.741,58.741 0 1 0 58.745,-58.737l-0.012,0z" data-name="Path 45" id="a2e92954-9457-422e-9ad9-6983f1497d30-260"/>
  <path id="svg_3" fill="#6c63ff" d="m297.17379,352.18904l0,-19a4.035,4.035 0 1 0 -8.07,0l0,19a8.25,8.25 0 1 0 8.07,0z"/>
  <path id="svg_4" fill="#fff" d="m291.7438,333.18904a1.38,1.38 0 0 1 2.75,0l0,12.26l-2.75,0l0,-12.26z"/>
  <rect opacity="0.999" fill="#e6e6e6" height="2.67" width="226.077" y="347.05399" x="328.2898" data-name="Rectangle 212" id="b3fb4dd5-f808-4e17-8bda-c83ab4154b38"/>
  <circle fill="#6c63ff" r="6.33" cy="348.394" cx="402.3998" data-name="Ellipse 309" id="a8297b77-abf6-4c40-82ff-587ecc4408bb"/>
  <rect fill="#6c63ff" height="2.67" width="74.11" y="347.05399" x="328.2898" data-name="Rectangle 213" id="bab01c70-216f-4a38-9df4-dd1bd7c7e26a"/>
  <rect fill="#e6e6e6" height="2.67" width="226.077" y="422.05799" x="328.2898" data-name="Rectangle 214" id="e79b1bf0-5be3-436b-bf8d-05f197630a0c"/>
  <circle fill="#6c63ff" r="6.33" cy="423.39998" cx="458.3998" data-name="Ellipse 310" id="b712d611-a245-46ba-a930-54b84f7b4163"/>
  <rect fill="#6c63ff" height="2.67" width="130.72" y="422.05799" x="328.2898" data-name="Rectangle 215" id="b0ead41e-44a3-4ee0-8520-af8fabea1192"/>
  <rect fill="#e6e6e6" height="2.67" width="226.077" y="492.07398" x="328.2898" data-name="Rectangle 216" id="b6f69233-a0f8-4d31-9338-7486181d31fc"/>
  <circle fill="#6c63ff" r="6.33" cy="493.40398" cx="520.3998" data-name="Ellipse 311" id="bad96c00-62fc-4855-8211-fc7f6ab481a1"/>
  <rect fill="#6c63ff" height="2.67" width="192.72" y="492.07398" x="328.2898" data-name="Rectangle 217" id="af19c379-2974-46fc-899f-5cc4a77f219a"/>
  <rect fill="#e6e6e6" height="2.67" width="226.077" y="561.70301" x="328.2898" data-name="Rectangle 218" id="a7883c47-f1a1-461a-9e9c-5c6b67118f50"/>
  <circle fill="#6c63ff" r="6.33" cy="563.03301" cx="402.3998" data-name="Ellipse 312" id="b15fd4c9-9da1-4107-8e2e-e457c3dc6651"/>
  <rect fill="#6c63ff" height="2.67" width="74.11" y="561.70301" x="328.2898" data-name="Rectangle 219" id="ad5563c6-4e4d-449d-9957-f2853a47960a"/>
  <ellipse fill="#f0f0f0" ry="6.362" rx="4.859" cy="667.74397" cx="84.6198" data-name="Ellipse 314" id="e20e7d5b-e8e8-4858-9628-d78b97e65045"/>
  <path id="svg_5" fill="#f0f0f0" d="m102.81567,596.64104a23.2998,23.2998 0 0 0 0,-28.79l-0.002,-0.006a24.02513,24.02513 0 0 0 1.812,-2.668l-12.77978,-2.107l13.81885,0.105a23.36239,23.36239 0 0 0 0.44189,-18.454l-18.52392,9.62l17.09082,-12.569a23.29188,23.29188 0 1 0 -38.46582,26.065a23.77339,23.77339 0 0 0 -2.65381,4.213l16.58593,8.616l-17.686,-5.89105a23.30552,23.30552 0 0 0 3.75,21.866a23.28275,23.28275 0 0 0 14.02588,37.27735a7.98109,7.98109 0 0 0 -0.46875,2.71264a7.65847,7.65847 0 0 0 1.02,3.89051a7.92874,7.92874 0 0 0 0.00049,7.78149a7.92914,7.92914 0 0 0 -0.00342,7.77649a7.66163,7.66163 0 0 0 -1.01709,3.8855c0,3.51361 2.17529,6.362 4.85888,6.362s4.85889,-2.84839 4.85889,-6.362a7.93026,7.93026 0 0 1 0,-7.771a7.66,7.66 0 0 0 -1.02051,-3.891a7.92874,7.92874 0 0 0 0.00049,-7.78149a7.65847,7.65847 0 0 0 1.02,-3.89051a7.97853,7.97853 0 0 0 -0.48486,-2.75683a23.27682,23.27682 0 0 0 13.82184,-37.2331z"/>
  <path opacity="0.05" d="m61.2298,582.23997a23.172,23.172 0 0 0 4.979,14.395a23.285,23.285 0 1 0 36.612,0c3.11802,-3.96093 -41.591,-17.00798 -41.591,-14.395z" data-name="Path 1525" id="aa6e87ce-3387-49c0-864d-01816dc3159f-273"/>
  <path id="svg_6" fill="#f0f0f0" d="m45.02807,613.58994l-0.00635,-0.007a13.42673,13.42673 0 0 0 1.00928,-1.487l-7.12012,-1.174l7.7002,0.059a13.01686,13.01686 0 0 0 0.2456,-10.281l-10.31982,5.36l9.522,-7a12.977,12.977 0 1 0 -21.43115,14.522a13.25833,13.25833 0 0 0 -1.479,2.347l9.24121,4.8l-9.85107,-3.282a12.98477,12.98477 0 0 0 2.08887,12.183a12.96356,12.96356 0 0 0 7.81885,20.76306a4.42174,4.42174 0 0 0 -0.26856,1.514a4.34458,4.34458 0 0 1 0,4.336a4.344,4.344 0 0 1 0,4.334a4.34606,4.34606 0 0 1 0,4.33a4.344,4.344 0 0 1 0,4.334c0,1.95734 1.21191,3.544 2.707,3.544c1.49463,0 2.707,-1.58667 2.707,-3.544a4.34082,4.34082 0 0 1 0,-4.334a4.34293,4.34293 0 0 1 0,-4.33a4.34082,4.34082 0 0 1 0,-4.334a4.3414,4.3414 0 0 1 0,-4.336a4.42428,4.42428 0 0 0 -0.27881,-1.53881a12.95918,12.95918 0 0 0 7.71485,-20.73822a12.98159,12.98159 0 0 0 0.00002,-16.04003z"/>
  <path id="svg_7" fill="#f0f0f0" d="m139.06078,630.87796l-0.00586,-0.007a10.30368,10.30368 0 0 0 0.77686,-1.144l-5.48,-0.9l5.92627,0.045a10.02024,10.02024 0 0 0 0.18994,-7.913l-7.94336,4.125l7.3291,-5.39a9.98792,9.98792 0 1 0 -16.49267,11.17706a10.17186,10.17186 0 0 0 -1.13819,1.807l7.11182,3.695l-7.582,-2.526a9.99366,9.99366 0 0 0 1.6084,9.377a9.97781,9.97781 0 0 0 6.01757,15.98194a3.40787,3.40787 0 0 0 -0.207,1.16607a3.34078,3.34078 0 0 1 0,3.338a3.3402,3.3402 0 0 1 0,3.336a3.34215,3.34215 0 0 1 0,3.332c0,1.50666 0.93311,2.728 2.084,2.728c1.15136,0 2.084,-1.22137 2.084,-2.728a3.34541,3.34541 0 0 1 0,-3.332a3.34338,3.34338 0 0 1 0,-3.336a3.344,3.344 0 0 1 0,-3.338a3.394,3.394 0 0 0 -0.21484,-1.18555a9.9745,9.9745 0 0 0 5.936,-15.96246a9.99023,9.99023 0 0 0 -0.00004,-12.34606z"/>
  <path fill="#fff" d="m414.7658,126.82498a7.81805,7.81805 0 1 1 5.542,-2.267a7.818,7.818 0 0 1 -5.542,2.267z" data-name="Path 1517" id="b799e5a5-ef38-4021-b162-aaf6c43020c5-274"/>
  <path fill="#e6e6e6" d="m829.30282,674.10799l-828.187,0a1.006,1.006 0 1 1 0,-2l828.187,0a1.006,1.006 0 1 1 0,2z" data-name="Path 944" id="b4f17ecd-a761-4c1d-9635-212bbdf6143f-275"/>
  <circle id="svg_8" fill="#fff" r="4" cy="359.34203" cx="293.13879"/>
  <path id="svg_9" fill="#6c63ff" d="m302.67322,419.34204a8.51389,8.51389 0 1 1 -17,0c0,-4.97056 8,-10 8,-19c0,-4.69443 9,14.02943 9,19z"/>
  <path id="svg_10" fill="#fff" d="m299.2739,419.19275a5.109,5.109 0 1 1 -10.20137,0c0,-2.98273 4.80065,-6.0008 4.80065,-11.40153c0,-2.81703 5.40072,8.41882 5.40072,11.40153z"/>
  <path id="svg_11" fill="#6c63ff" d="m293.13379,476.90295c-6.85,0 -12.37,5.15 -12.37,11.52a11.34,11.34 0 0 0 5.28,9.5l0,3.73a1.71,1.71 0 0 0 1.76788,1.65009l0.00211,-0.00007l10.64,0a1.71,1.71 0 0 0 1.76993,-1.64788l0.00006,-0.00214l0,-3.73a11.32,11.32 0 0 0 5.29,-9.5c0.00003,-6.36998 -5.52997,-11.52 -12.37998,-11.52z"/>
  <path id="svg_12" fill="#fff" d="m293.13494,479.93304c-5.27764,0 -9.53056,3.96788 -9.53056,8.8757a8.737,8.737 0 0 0 4.068,7.31935l0,2.87379a1.31747,1.31747 0 0 0 1.36208,1.27132l0.00162,0l8.19769,0a1.31749,1.31749 0 0 0 1.36365,-1.26963l0,-0.00165l0,-2.87388a8.72159,8.72159 0 0 0 4.07573,-7.31935c0.00007,-4.90778 -4.26056,-8.87565 -9.53821,-8.87565z"/>
  <path id="svg_13" fill="#6c63ff" d="m288.17322,504.84204a1,1 0 0 0 0,2l10,0a1,1 0 1 0 0,-2l-10,0z"/>
  <path id="svg_14" fill="#6c63ff" d="m288.17322,508.84204a1,1 0 0 0 0,2l10,0a1,1 0 1 0 0,-2l-10,0z"/>
  <path id="svg_15" fill="#6c63ff" d="m300.11664,548.34204l0.29663,-0.741a1.77681,1.77681 0 0 0 -1.64954,-2.43707l-12.09814,0a1.7768,1.7768 0 0 0 -1.7768,1.77679l0,1.40128l15.22785,0z"/>
  <path id="svg_16" fill="#6c63ff" d="m298.51392,558.90392l-0.00006,0a1.77679,1.77679 0 0 1 -1.64954,-2.43707l2.05145,-5.12482l-14.027,0l0,11.2851a1.77677,1.77677 0 0 0 1.7768,1.77679l1.94641,0a1.7768,1.7768 0 0 1 1.77679,1.7768l0,7.19659a1.7768,1.7768 0 0 0 3.366,0.79462l6.34827,-12.6966a1.77679,1.77679 0 0 0 -1.58912,-2.57141z"/>
  <path id="svg_17" fill="#6c63ff" d="m286.67322,429.84204a1.5,1.5 0 0 0 0,3l14,0a1.5,1.5 0 1 0 0,-3l-14,0z"/>
  <path id="svg_18" fill="#6c63ff" d="m286.67322,435.84204a1.5,1.5 0 0 0 0,3l14,0a1.5,1.5 0 1 0 0,-3l-14,0z"/>
  <circle id="svg_19" fill="#6c63ff" r="1" cy="248.34203" cx="419.67322"/>
  <path id="svg_20" fill="#6c63ff" d="m441.97943,230.26415l-26.04223,-24.03894a1,1 0 0 0 -1.35669,0.00012l-11.90729,10.99518l0,-4.87847a1,1 0 0 0 -1,-1l-2,0a1,1 0 0 0 -1,1l0,8.572l-10.1259,9.35023a1,1 0 0 0 0.67841,1.73468l5.01306,0a1.00005,1.00005 0 0 1 1,1l0,24.39a1,1 0 0 0 1,1l38.04,0a1,1 0 0 0 1,-1l0,-24.39a1,1 0 0 1 1,-1l5.02234,0a1,1 0 0 0 0.6783,-1.7348zm-32.32062,10.52489l11.2,0a1,1 0 0 1 1,1l0,14.6l-13.2,0l0,-14.6a1,1 0 0 1 1,-1z"/>
  <path id="svg_72" fill="#ffb6b6" d="m513.81452,408.092s13.871,14.334 15.10247,22.41535l-12.067,6.94989l-13.9274,-24.40645l-7.34549,-32.5797a5.53317,5.53317 0 1 1 9.22653,-2.36094l9.01089,29.98185z"/>
  <path id="svg_73" fill="#ffb6b6" d="m642.46759,373.72167a5.53317,5.53317 0 1 1 9.13261,2.70156l-8.549,32.28481l-14.82321,23.87305l-11.80085,-7.39271c1.53044,-8.03006 15.92356,-21.83971 15.92356,-21.83971l10.11689,-29.627z"/>
  <path id="svg_76" fill="#6c63ff" d="m815.38706,219.90709c-3.53,-1.59 -7,-3.12 -10.32,-4.53c-0.5,-0.21 -1,-0.43 -1.5,-0.64l-0.06,-0.03q-4.485,-1.92 -8.99,-3.76c-2.1,-0.86005 -4.19,-1.71 -6.29,-2.54c-0.82,-0.34 -1.64,-0.66 -2.47,-0.98c-1.33,-0.53 -2.67,-1.05 -4,-1.57c-1.1,-0.43 -2.21,-0.85 -3.31,-1.27c-1.27,-0.49 -2.54,-0.96 -3.80005,-1.44q-2.25,-0.84 -4.49,-1.66a0.08994,0.08994 0 0 0 -0.05,-0.01c-1.13,-0.42 -2.26,-0.83 -3.38,-1.23c-15.21,-5.48 -30.64,-10.38 -45.88,-14.57q-0.825,-0.225 -1.65,-0.45q-1.425,-0.39 -2.85,-0.78q-2.52,-0.675 -5.06,-1.32c-1.59,-0.42 -3.19,-0.82 -4.79,-1.22c-1.41,-0.35 -2.82,-0.7 -4.24,-1.04c-1.39,-0.34 -2.78,-0.67 -4.18,-0.99q-6.25506,-1.47006 -12.49,-2.78a0.27632,0.27632 0 0 0 -0.09,-0.01c-1,-0.22 -1.99,-0.43 -2.99,-0.63c-15.18,-3.11 -30.62,-5.61 -45.89,-7.44c-0.75,-0.09 -1.5,-0.18 -2.25,-0.26l-0.02,0c-0.13,-0.02 -0.27,-0.03 -0.4,-0.04q-1.89,-0.225 -3.78,-0.42c-1.66,-0.18 -3.31,-0.35 -4.97,-0.51q-5.895,-0.585 -11.77,-1.02c-0.99,-0.08 -1.97,-0.15 -2.95,-0.21c-1.13,-0.09 -2.26,-0.16 -3.38,-0.23q-1.74,-0.12 -3.48,-0.21c-0.44,-0.03 -0.87,-0.05 -1.3,-0.07c-0.54,-0.04 -1.09,-0.06 -1.63,-0.09q-1.215,-0.06 -2.43,-0.12c-15.24,-0.73 -30.67,-0.79 -45.87,-0.18c-0.84,0.03 -1.68,0.07 -2.53,0.11l-0.03,0c-0.61,0.03 -1.22,0.05 -1.84,0.08c-0.22,0.01 -0.45,0.02 -0.67,0.03c-1.51,0.08 -3.02,0.16 -4.53,0.25c-1.61,0.09 -3.21,0.19 -4.81,0.3c-1.01,0.07 -2.01,0.14 -3.01,0.21c-0.66,0.05 -1.32,0.1 -1.99,0.15c-4.18,0.32 -8.36,0.69 -12.51,1.11c-1.39,0.14 -2.77,0.28 -4.15,0.43c-0.77,0.08 -1.53,0.16 -2.29,0.25c-15.24,1.72 -30.68,4.15 -45.88,7.21c-1,0.2 -2.01,0.41 -3.02,0.62c-0.02,0 -0.04,0.01 -0.06,0.01c-0.15,0.03 -0.31,0.06 -0.46,0.1c-1.04,0.21 -2.09,0.43 -3.13,0.66c-1.15,0.24 -2.29,0.49 -3.44,0.74c-0.96,0.21 -1.92,0.43 -2.88,0.65c-2.26,0.51 -4.53,1.03 -6.79,1.58q-6.9,1.65006 -13.79,3.49c-1.04,0.28 -2.09,0.56 -3.14,0.85a0.031,0.031 0 0 0 -0.02,0.01c-0.54,0.14 -1.09,0.29 -1.63,0.44c-15.2,4.18 -30.63,9.12 -45.87,14.7c-1.12,0.41 -2.24,0.82 -3.37,1.25a0.23548,0.23548 0 0 0 -0.08,0.02q-4.545,1.695 -9.14,3.48c-1.11,0.44 -2.23,0.88 -3.35,1.32c-1.08,0.43 -2.17,0.86 -3.25,1.3c-0.95,0.38 -1.89,0.76 -2.84,1.15c-0.76,0.31 -1.51,0.62 -2.27,0.93q-3.9,1.62 -7.79,3.28c-1.57,0.68 -3.15,1.36 -4.72,2.05c-0.51,0.22 -1.03,0.44 -1.54,0.67c-3.78,1.67005 -7.22,3.22 -10.52,4.75a20.3368,20.3368 0 0 0 -11.8,18.4l0,35.29a20.2371,20.2371 0 0 0 25.93,19.42c1.49,-0.44 2.98,-0.88 4.48,-1.32c1.25,-0.37 2.51,-0.73 3.76,-1.09c1.37,-0.39 2.73,-0.78 4.1,-1.17c3.12994,-0.87 6.28,-1.74 9.43,-2.58q2.205,-0.585 4.41,-1.17c2.31,-0.61 4.62,-1.2 6.93,-1.79q0.96,-0.24 1.92,-0.48c10.05,-2.52 20.15,-4.86 30.17,-6.98c1.03,-0.22 2.06,-0.43 3.08,-0.64q6.31494,-1.32 12.56,-2.5l3,-0.57l0.03,0c0.98,-0.19 1.96,-0.37 2.94,-0.55q4.11,-0.75 8.27,-1.46c1.59,-0.28 3.19,-0.55 4.79,-0.81c0.16,-0.03 0.32,-0.06 0.48,-0.07995q4.14,-0.69 8.3,-1.33c1.88,-0.29 3.77,-0.58 5.66,-0.85c1.61,-0.24 3.22,-0.47 4.83,-0.7c15.26,-2.14 30.67,-3.85 45.81,-5.05c1.31,-0.11 2.62,-0.21 3.93,-0.31c5.08,-0.38 10.2,-0.72 15.33,-1c6.34,-0.34 12.7,-0.61 19.03,-0.8c15.2,-0.47 30.61,-0.47 45.8,0c6.34,0.19 12.7,0.46 19.04,0.8c5.13,0.28 10.25,0.62005 15.33,1c1.31,0.1 2.62006,0.2 3.93006,0.31c15.12994,1.2 30.54,2.9 45.81994,5.05c0.73,0.1 1.45,0.21 2.18006,0.31c0.26,0.04 0.51,0.07 0.77,0.11c1.11,0.16 2.22,0.33 3.33,0.49q6.255,0.93 12.5,1.97c1.07,0.17 2.14,0.35 3.2,0.53q3.435,0.585 6.84,1.19c1.32,0.24 2.63,0.48 3.94,0.72c0.83,0.15 1.67005,0.3 2.5,0.46c1.01,0.19 2.02,0.38 3.02,0.57c1.65,0.31 3.3,0.63 4.96,0.96c1.04,0.21 2.09,0.41 3.14,0.63c11.19,2.25 22.49,4.78 33.74,7.54q1.755,0.435 3.51,0.87c0.16,0.04 0.31,0.08 0.47,0.12c1.21,0.3 2.42,0.61 3.63,0.92q2.595,0.66 5.2,1.35q2.205,0.57 4.41,1.17c4.54,1.21 9.08,2.47 13.59,3.76q4.125,1.185 8.21,2.4l0.02,0a19.75863,19.75863 0 0 0 3.32,0.68a19.33458,19.33458 0 0 0 2.4,0.15a20.22233,20.22233 0 0 0 20.18,-20.25l0,-35.13005a20.3188,20.3188 0 0 0 -12.01001,-18.49z"/>
  <path id="svg_77" fill="#3f3d56" d="m383.26707,201.25709a3.02459,3.02459 0 0 0 -2.72,-0.37a0.23548,0.23548 0 0 0 -0.08,0.02q-4.545,1.695 -9.14,3.48c-1.11,0.44 -2.23,0.88 -3.35,1.32c-1.08,0.43 -2.17,0.86 -3.25,1.3c-0.95,0.38 -1.89,0.76 -2.84,1.15c-0.76,0.31 -1.51,0.62 -2.27,0.93q-3.9,1.62 -7.79,3.28c-1.57,0.68 -3.15,1.36 -4.72,2.05a3.06358,3.06358 0 0 0 -1.84,2.81l0,72.77a3.05507,3.05507 0 0 0 1.24,2.47a3.26182,3.26182 0 0 0 0.8,0.43a3.00232,3.00232 0 0 0 1.87,0.04l4.47,-1.32q1.875,-0.54 3.75,-1.08c1.37006,-0.39 2.74,-0.78 4.12006,-1.17c3.12994,-0.87 6.28,-1.74 9.43,-2.58q2.205,-0.6 4.41,-1.17c2.31,-0.61 4.62,-1.2 6.93,-1.79a3.09437,3.09437 0 0 0 1.49,-0.88l0.01,-0.01a3.06593,3.06593 0 0 0 0.8,-2.06l0,-77.1a3.06113,3.06113 0 0 0 -1.32006,-2.52z"/>
  <path id="svg_78" fill="#3f3d56" d="m467.60699,177.03709a2.99982,2.99982 0 0 0 -2.48,-0.63c-0.02,0 -0.04,0.01 -0.06,0.01c-0.15,0.03 -0.31,0.06 -0.46,0.1c-1.04,0.21 -2.09,0.43 -3.13,0.66c-1.15,0.24 -2.29,0.49 -3.44,0.74c-0.96,0.21 -1.92,0.43 -2.88,0.65c-2.26,0.51 -4.53,1.03 -6.79,1.58q-6.915,1.65006 -13.79,3.49c-0.96,0.25 -1.93,0.51 -2.89,0.77a2.41075,2.41075 0 0 0 -0.25,0.08a0.031,0.031 0 0 0 -0.02,0.01a3.07868,3.07868 0 0 0 -1.99,2.87l0,82.29a3.04516,3.04516 0 0 0 1.1,2.35a2.89966,2.89966 0 0 0 0.79,0.47a3.07572,3.07572 0 0 0 1.16,0.23a3.2852,3.2852 0 0 0 0.54,-0.05l0.03,0c0.98,-0.19 1.96,-0.37 2.94,-0.55q4.11,-0.75 8.27,-1.46c1.59,-0.28 3.19,-0.55 4.79,-0.81c0.16,-0.03 0.32,-0.06 0.48,-0.07995q4.14,-0.69 8.3,-1.33c1.88,-0.29 3.77,-0.58 5.66,-0.85c0.88,-0.14 1.76,-0.26 2.64,-0.39a2.99378,2.99378 0 0 0 1.57,-0.72a3.06463,3.06463 0 0 0 1.05,-2.3l0,-84.75005a3.04973,3.04973 0 0 0 -1.14,-2.38z"/>
  <path id="svg_79" fill="#3f3d56" d="m551.95707,166.61709a3.08937,3.08937 0 0 0 -2.1,-0.85l-0.15,0c-0.57,0.03 -1.15,0.05 -1.72,0.08c-0.22,0.01 -0.45,0.02 -0.67,0.03c-1.51,0.08 -3.02,0.16 -4.53,0.25c-1.61,0.09 -3.21,0.19 -4.81,0.3c-1.01,0.07 -2.01,0.14 -3.01,0.21c-0.66,0.05 -1.32,0.1 -1.99,0.15c-4.18,0.32 -8.36,0.69 -12.51,1.11c-1.39,0.14 -2.77,0.28 -4.15,0.43a3.05759,3.05759 0 0 0 -2.73,3.05l0,87.19a3.01419,3.01419 0 0 0 0.98,2.23a2.968,2.968 0 0 0 0.62,0.45a3.07347,3.07347 0 0 0 1.46,0.37c0.07,0 0.15,-0.01 0.23,-0.01c0.39,-0.03 0.79,-0.06 1.18,-0.09c5.08,-0.38 10.2,-0.72 15.33,-1c5.53,-0.31 11.06,-0.55 16.56,-0.73a2.96088,2.96088 0 0 0 1.66,-0.54a3.04651,3.04651 0 0 0 1.3,-2.51l0,-87.9a3.039,3.039 0 0 0 -0.95,-2.22z"/>
  <path id="svg_80" fill="#3f3d56" d="m634.36704,168.75709l-0.02,0c-0.13,-0.02 -0.27,-0.03 -0.4,-0.04q-1.89,-0.225 -3.78,-0.42c-1.66,-0.18 -3.31,-0.35 -4.97,-0.51q-5.895,-0.585 -11.77,-1.02c-0.99,-0.08 -1.97,-0.15 -2.95,-0.21c-1.13,-0.09 -2.26,-0.16 -3.38,-0.23q-1.74,-0.12 -3.48,-0.21c-0.44,-0.03 -0.87,-0.05 -1.3,-0.07c-0.46,-0.03 -0.91,-0.06 -1.36,-0.08a2.43535,2.43535 0 0 0 -0.27,-0.01a2.98942,2.98942 0 0 0 -1.99,0.84a3.04873,3.04873 0 0 0 -0.96,2.23l0,87.71a3.02979,3.02979 0 0 0 1.31,2.51a2.92911,2.92911 0 0 0 1.65,0.54c5.5,0.18 11.03,0.42 16.56,0.73c5.13,0.28 10.25,0.62005 15.33,1c0.39,0.03 0.79,0.06 1.18006,0.09c0.07995,0 0.15,0.01 0.23,0.01a3.07353,3.07353 0 0 0 1.46,-0.37a2.96929,2.96929 0 0 0 0.62,-0.45a3.0515,3.0515 0 0 0 0.98,-2.23l0,-86.77a3.07447,3.07447 0 0 0 -2.69006,-3.04z"/>
  <path id="svg_81" fill="#3f3d56" d="m719.19706,185.22709a2.26616,2.26616 0 0 0 -0.24,-0.08c-0.87006,-0.24 -1.74,-0.47 -2.61005,-0.7q-2.52,-0.675 -5.06,-1.32c-1.59,-0.42 -3.19,-0.82 -4.79,-1.22c-1.41,-0.35 -2.82,-0.7 -4.24,-1.04c-1.39,-0.34 -2.78,-0.67 -4.18,-0.99q-6.25506,-1.47006 -12.49,-2.78a0.27632,0.27632 0 0 0 -0.09,-0.01a3.009,3.009 0 0 0 -2.46,0.63a3.0499,3.0499 0 0 0 -1.14,2.38l0,84.07a3.03907,3.03907 0 0 0 1.06006,2.3a2.96241,2.96241 0 0 0 1.56,0.72c0.26,0.04 0.51,0.07 0.77,0.11c1.11,0.16 2.22,0.32 3.33,0.49q6.255,0.93 12.5,1.97c1.07,0.17 2.14,0.35 3.2,0.53q3.435,0.585 6.84,1.19c1.32,0.24 2.63,0.48 3.94,0.72c0.83,0.15 1.67005,0.3 2.5,0.46a3.65388,3.65388 0 0 0 0.57,0.05a3.03793,3.03793 0 0 0 1.16,-0.23a2.75711,2.75711 0 0 0 0.79,-0.47a3.045,3.045 0 0 0 1.1,-2.35l0,-81.55a3.071,3.071 0 0 0 -2.02001,-2.88z"/>
  <path id="svg_82" fill="#3f3d56" d="m803.56705,214.73709l-0.06,-0.03q-4.485,-1.92 -8.99,-3.76c-2.1,-0.86005 -4.19,-1.71 -6.29,-2.54c-0.82,-0.34 -1.64,-0.66 -2.47,-0.98c-1.33,-0.53 -2.67,-1.05 -4,-1.57c-1.1,-0.43 -2.21,-0.85 -3.31,-1.27c-1.27,-0.49 -2.54,-0.96 -3.80005,-1.44q-2.25,-0.84 -4.49,-1.66a0.08994,0.08994 0 0 0 -0.05,-0.01a2.97542,2.97542 0 0 0 -2.74,0.38a3.05953,3.05953 0 0 0 -1.31,2.51l0,76.51a3.03813,3.03813 0 0 0 0.57,1.77a3.25208,3.25208 0 0 0 0.23,0.29l0.01,0.01a3.04938,3.04938 0 0 0 1.49,0.88c0.57,0.14 1.14,0.29 1.71,0.44q2.595,0.66 5.2,1.35q2.205,0.57 4.41,1.17c4.54,1.21 9.08,2.47 13.59,3.76q4.125,1.185 8.21,2.4l0.02,0a3.11674,3.11674 0 0 0 0.85,0.12a3.02762,3.02762 0 0 0 0.99,-0.17a2.9575,2.9575 0 0 0 0.8,-0.43a3.07376,3.07376 0 0 0 1.23,-2.47l0,-72.47a3.05226,3.05226 0 0 0 -1.79995,-2.79z"/>
  <path id="svg_83" fill="#3f3d56" d="m353.72431,291.67626c13.02232,8.77485 26.61927,16.66483 40.322,24.31954c14.65877,8.1888 29.47073,16.09968 44.13215,24.28374c14.74994,8.23346 29.36921,16.73237 43.47136,26.04141a299.99928,299.99928 0 0 1 38.7661,29.84209c11.4481,10.59661 21.817,22.43838 29.96818,35.77424q1.458,2.3853 2.81841,4.82787c0.94121,1.686 3.53339,0.175 2.59041,-1.51416a164.39189,164.39189 0 0 0 -28.70286,-36.87118a279.40457,279.40457 0 0 0 -38.14589,-30.76494c-14.01,-9.58975 -28.61492,-18.27973 -43.38832,-26.63268c-14.73014,-8.3285 -29.65133,-16.31157 -44.45886,-24.50034c-13.93881,-7.70836 -27.8079,-15.58551 -41.15956,-24.28226q-2.36172,-1.53834 -4.69894,-3.11375c-1.60543,-1.08178 -3.10855,1.51606 -1.51416,2.59042l-0.00002,0z"/>
  <path id="svg_84" fill="#3f3d56" d="m404.33934,256.47209a224.83949,224.83949 0 0 0 22.87631,39.93753a468.64184,468.64184 0 0 0 29.4249,36.92928c10.42577,12.0107 21.16383,23.74511 31.66508,35.68922c10.3818,11.80825 20.56091,23.825 29.85667,36.51548a239.725,239.725 0 0 1 23.92322,39.45561q1.21384,2.58312 2.34675,5.2029c0.76559,1.76681 3.35093,0.24094 2.59041,-1.51415a224.84072,224.84072 0 0 0 -22.87631,-39.93753a468.64,468.64 0 0 0 -29.42491,-36.92927c-10.42576,-12.01071 -21.16383,-23.74512 -31.66507,-35.68923c-10.38181,-11.80824 -20.56092,-23.825 -29.85667,-36.51548a239.72361,239.72361 0 0 1 -23.92322,-39.45561q-1.21386,-2.58312 -2.34675,-5.2029c-0.7656,-1.76681 -3.35093,-0.24094 -2.59041,1.51415z"/>
  <path id="svg_85" fill="#3f3d56" d="m771.05726,274.36156a376.86789,376.86789 0 0 1 -36.28039,30.50043c-13.2,9.93534 -26.75819,19.38141 -40.24915,28.914c-13.46911,9.51716 -26.89118,19.11782 -39.82408,29.35844a309.17175,309.17175 0 0 0 -35.05606,31.77549c-10.13166,10.92421 -19.21246,22.95527 -26.0196,36.2438q-1.22786,2.39694 -2.35368,4.84377c-0.80331,1.74136 1.7817,3.26722 2.59041,1.51416a152.13917,152.13917 0 0 1 24.48007,-36.69756a283.354,283.354 0 0 1 34.11465,-32.059c12.7129,-10.32016 25.99138,-19.91955 39.34378,-29.3887c13.50158,-9.575 27.10855,-19.00589 40.40589,-28.86516a424.3639,424.3639 0 0 0 36.87581,-30.12075q2.06739,-1.92717 4.09367,-3.89761c1.387,-1.34793 -0.73539,-3.46819 -2.12132,-2.12132l0,0.00001z"/>
  <path id="svg_86" fill="#3f3d56" d="m740.13745,246.74641a224.83967,224.83967 0 0 1 -22.87631,39.93752a464.74277,464.74277 0 0 1 -29.45895,36.90125c-10.436,12.00225 -21.17538,23.736 -31.66914,35.68735c-10.37452,11.81554 -20.52271,23.85478 -29.81856,36.54538a239.7255,239.7255 0 0 0 -23.92322,39.45562q-1.21384,2.58311 -2.34675,5.2029c-0.75979,1.7534 1.824,3.28287 2.59041,1.51416a224.84016,224.84016 0 0 1 22.87632,-39.9375a464.74476,464.74476 0 0 1 29.45894,-36.90124c10.436,-12.00225 21.17539,-23.736 31.66914,-35.68735c10.37453,-11.81554 20.52272,-23.85478 29.81856,-36.54539a239.72361,239.72361 0 0 0 23.92322,-39.45561q1.21386,-2.58312 2.34675,-5.2029c0.75979,-1.75341 -1.824,-3.28287 -2.59041,-1.51416l0,-0.00003z"/>
  <polygon id="svg_87" fill="#ffb6b6" points="518.6690063476562,627.6409912109375 520.5599975585938,634.2000122070312 546.761962890625,630.0289916992188 543.9710083007812,620.3469848632812 518.6690063476562,627.6409912109375 "/>
  <path id="svg_88" fill="#2f2e41" d="m511.75979,629.38147l5.81411,20.172l0.25512,-0.07353a8.17158,8.17158 0 0 0 5.58876,-10.11428l-0.00014,-0.00048l1.73353,-4.49031l-4.77709,-6.06914l-0.50753,-1.7609l-8.10676,2.33664z"/>
  <polygon id="svg_89" fill="#ffb6b6" points="631.1710205078125,659.8610229492188 637.83203125,658.364013671875 635.22802734375,631.9600219726562 625.39697265625,634.1699829101562 631.1710205078125,659.8610229492188 "/>
  <path id="svg_90" fill="#2f2e41" d="m630.55561,667.34132l20.48235,-4.60295l-0.0582,-0.259a8.17158,8.17158 0 0 0 -9.76364,-6.181l-0.00049,0.00011l-4.37915,-1.99777l-6.34276,4.40732l-1.788,0.4018l1.84989,8.23149z"/>
  <path id="svg_91" fill="#2f2e41" d="m610.78405,518.44666l30.16139,123.75978l-14.75356,1.30727l-16.34774,-41.41817l-25.2349,-48.74917l2.28075,55.64172l-46.94917,27.45684l-11.03312,-15.11375l37.53273,-20.18676l-16.39533,-73.63727l4.36378,-9.06051l56.37517,0.00002z"/>
  <path id="svg_21" fill="#e6e6e6" d="m550.3541,529.28422c-4.88945,-6.84533 4.15591,-18.1156 5.265,-20.50013l0,0a5.98652,5.98652 0 0 1 -4.09768,-6.39362l0.47812,-4.06427l0.49837,-3.9865l-3.57039,-3.57039l-0.01,-0.089l-2.0547,-17.97866l-2.98749,-11.94123a26.21628,26.21628 0 0 1 7.441,-25.40665l6.90554,-1.09652l8.39238,-8.08616l13.53374,0l4.64038,4.43352c8.66257,1.51927 10.15077,1.0232 17.59176,9.9524l-3.38114,27.76108l-0.84349,3.81908l0.00249,5.17992l2.14441,2.38319a7.416,7.416 0 0 1 1.75916,6.4149l-0.282,1.41l0,0c2.21163,0.94781 4.322,17.79167 4.82623,20.14441l0.75317,3.51446c0.64435,0.85025 4.89747,6.52128 4.89747,8.07158c0,0.23276 -0.17181,0.45775 -0.54052,0.70734c-2.89844,1.96265 -28.27141,7.15858 -35.36179,4.32134c-7.55266,-3.01994 -26.00002,4.99991 -26.00002,4.99991z"/>
  <path id="svg_22" fill="#e6e6e6" d="m523.23431,446.91336l5.95068,7.27762a26.84052,26.84052 0 0 0 18.17865,9.72423l0,0a11.7502,11.7502 0 0 0 11.09926,-5.53517l0,0a11.72247,11.72247 0 0 0 -3.27243,-15.66687c-7.37184,-5.18163 -11.39326,-13.20969 -17.18871,-10.60666l-1.24683,-3.06215l-16.34031,-13.203l-13.39244,11.492l16.21213,19.58z"/>
  <path id="svg_23" fill="#e6e6e6" d="m638.42465,422.82869l-12.95691,-11.98087l-10.10526,6.435l-1.35956,3.01378c-5.6949,-2.81623 -16.72494,11.21 -24.28391,16.11458a11.72249,11.72249 0 0 0 -3.85134,15.5347l0,0a11.75021,11.75021 0 0 0 10.88631,5.94308l0,0a26.84051,26.84051 0 0 0 18.52684,-9.04321l6.21655,-7.05186l16.92728,-18.9652z"/>
  <circle id="svg_24" fill="#ffb6b6" r="15.03014" cy="407.2346" cx="572.46799"/>
  <path id="svg_25" fill="#2f2e41" d="m561.56023,417.82859c-0.13119,-0.11507 -0.255,-0.23792 -0.38325,-0.35618c-0.00461,0.01213 -0.0053,0.02456 -0.01021,0.03665l0.39346,0.31953z"/>
  <path id="svg_26" fill="#2f2e41" d="m586.57706,401.59709c-0.08,-0.05 -0.15,-0.1 -0.23,-0.14a5.47174,5.47174 0 0 0 -3.47,-1.17c-1.2,0.15 -2.19,1.01 -3.34,1.35c-2.47,0.72 -4.96,-1.04 -7.52,-1.22l-0.06,0a6.22152,6.22152 0 0 0 -6.6,5.82c-0.05,0.83 0.06,1.66 -0.04,2.48a2.53966,2.53966 0 0 1 -1.26,2.03c-1.13,0.51 -2.65,-0.25 -3.61,0.54c-0.85,0.71 -0.54,2.09 -0.03,3.08a4.50123,4.50123 0 0 1 0.83,2.87a2.17016,2.17016 0 0 1 -0.07,0.24a22.61191,22.61191 0 0 1 -7.2,-16.89a8.91639,8.91639 0 0 1 0.84,-4.04a4.217,4.217 0 0 1 3.21,-2.37c1.18,-0.1 2.4,0.43 3.52,0.05c1.38,-0.46 1.96,-2.05 2.68,-3.33a9.61922,9.61922 0 0 1 8.8,-4.77a19.07257,19.07257 0 0 1 3.74,0.75l2.37994,0.65a12.85173,12.85173 0 0 1 2.63,0.93a8.55954,8.55954 0 0 1 3.01,2.91a12.9475,12.9475 0 0 1 1.49,3.12a22.65807,22.65807 0 0 1 -3.95,-0.14c1.5,0.93 3.01,1.86 4.51,2.79a12.68545,12.68545 0 0 1 -0.25994,4.46z"/>
  <circle id="svg_27" fill="#ff6584" r="49.43207" cy="128.43208" cx="823.6163"/>
  <path id="svg_29" fill="#f2f2f2" d="m740.59699,473.27709c-2.06,-6.9 -7.88,-11.41 -14.92,-12.4c-0.08,-0.01 -0.15,0.01 -0.23,0a2.63128,2.63128 0 0 0 -0.30005,-0.07a44.43015,44.43015 0 0 0 -28.62,6.23c-8.25,5.15 -17.86,7.48 -27.58,7.86a1.02749,1.02749 0 0 0 -0.17,0.01a17.6121,17.6121 0 0 0 -15.75,12.69a2.059,2.059 0 0 0 0.92,2.26a8.95175,8.95175 0 0 0 3.72,1.89c2.96,0.63 5.94,1.2 8.92,1.73c5.81,1.01 11.67,1.83 17.54,2.46a259.68934,259.68934 0 0 0 35.93,1.36c3.99,-0.12 7.84,-0.25 11.5,-2.02a17.099,17.099 0 0 0 6.61,-5.76a19.453,19.453 0 0 0 2.43005,-16.24z"/>
  <path id="svg_30" fill="#f2f2f2" d="m340.59699,64.27709c-2.06,-6.9 -7.88,-11.41 -14.92,-12.4c-0.08,-0.01 -0.15,0.01 -0.23,0a2.63128,2.63128 0 0 0 -0.3,-0.07a44.43015,44.43015 0 0 0 -28.62,6.23c-8.25,5.15 -17.86,7.48 -27.58,7.86a1.02749,1.02749 0 0 0 -0.17,0.01a17.6121,17.6121 0 0 0 -15.75,12.69a2.059,2.059 0 0 0 0.92,2.26a8.95175,8.95175 0 0 0 3.72,1.89c2.96,0.63 5.94,1.2 8.92,1.73c5.81,1.01 11.67005,1.83 17.54,2.46a259.68934,259.68934 0 0 0 35.93,1.36c3.99,-0.12 7.84,-0.25 11.5,-2.02a17.099,17.099 0 0 0 6.61,-5.76a19.453,19.453 0 0 0 2.43,-16.24z"/>
  <path id="svg_31" fill="#f2f2f2" d="m507.52409,819.00419q5.07,5.565 9.84,11.37a375.59062,375.59062 0 0 1 -133.21,-51.4c-0.85,-0.53 -1.69,-1.06 -2.53,-1.6a379.42717,379.42717 0 0 1 -63.94,-51.21c3.4,-3.19 5.5,-5.09 5.5,-5.09c47.45,-50.96 52.77,-68.9 100.22,-119.86c15.78,63.94 82.13,108.36 116.93,164.27a130.854,130.854 0 0 1 -32.97,16.65c-0.08,0.09 -0.16,0.19 -0.24,0.28a27.58136,27.58136 0 0 0 0.4,36.59z"/>
  <path id="svg_32" fill="#f2f2f2" d="m916.50413,638.86417a379.87347,379.87347 0 0 1 -117.46,130.57c-1.04,0.72 -2.08,1.44 -3.13,2.15a376.1879,376.1879 0 0 1 -113.13,51.75a21.6896,21.6896 0 0 0 -6.43,-3.41l0,-0.02q3.9,-7.29 7.8,-14.58c-8.98,9.16 -24.64,10.73 -35.26,3.55a33.44554,33.44554 0 0 1 7.34,-10.51c-2.6,1.19 -6.64,-0.53 -7.76,-3.53c-1.41,-3.75 0.19,-7.9 1.87,-11.54c18.53,-40.08 79.24,-104.97 80.19,-105.98c-0.65,0.4 -28.37,17.81 -44.45,16.52c-0.82,-4.92 -22.15,-10.93 -24.53,-13.43c9.69,-21.79 54.63,-62.33 54.63,-62.33c47.45,-50.96 52.77,-68.9 100.22,-119.86c13.49996,54.70005 63.99996,95.11003 100.1,140.65z"/>
  <g id="svg_33" opacity="0.2">
   <path id="svg_103" d="m309.99999,648.05119c0.29522,-0.39124 0.60461,-0.76758 0.90551,-1.1529l0.01636,-0.15368l-0.92187,1.30658z"/>
   <path id="svg_104" d="m823.36411,652.17423a19.74847,19.74847 0 0 1 -20.49,11.96a20.08583,20.08583 0 0 1 -3.26,-0.67q-17.535,-5.22 -35.06,-9.6q-22.92,-5.75994 -45.84,-10.12994q-19.15494,-3.66 -38.31,-6.35q-22.935,-3.22494 -45.85,-5.06q-19.155,-1.545 -38.32,-2.11q-22.92,-0.705 -45.83,0q-19.15494,0.57 -38.32,2.11q-22.91994,1.83 -45.84,5.06q-19.155,2.7 -38.32,6.35q-22.92,4.365 -45.84,10.12994q-17.535,4.39509 -35.05,9.6a20.08583,20.08583 0 0 1 -3.26,0.67a19.7358,19.7358 0 0 1 -22.03,-19.61l0,-9.24c22.55,-20.39 54.45,-29.84 85.21,-33.06c36.58,-3.83 73.75,-0.56 110.13,-5.99c29.66,-4.43005 59.13,-14.64 88.91,-11.09c25.95,3.08 49.6,16.38 75.19,21.7c32.1,6.67 65.99,0.54 97.8,8.47c12.47,3.1 24.69,8.55 33.6,17.8a43.42383,43.42383 0 0 1 10.78,19.06z"/>
  </g>
  <circle id="svg_36" fill="#6c63ff" r="19.21259" cy="470.49682" cx="574.12578"/>
  <path id="svg_37" fill="#fff" d="m571.50476,480.49609a2.13651,2.13651 0 0 1 -1.70954,-0.855l-5.24149,-6.98877a2.13709,2.13709 0 1 1 3.41942,-2.56439l3.42917,4.57187l8.80736,-13.21087a2.13718,2.13718 0 1 1 3.55648,2.371l-10.483,15.72448a2.138,2.138 0 0 1 -1.71893,0.951l-0.05947,0.00068z"/>
  <path id="svg_38" fill="#fff" d="m810.3541,582.6442q-1.365,22.425 -2.72,44.86q-2.4,39.63006 -4.8,79.27q-1.89,31.335 -3.79,62.66c-1.04,0.72 -2.08,1.44 -3.13,2.15q0.915,-14.95506 1.81,-29.91q2.4,-39.64507 4.8,-79.27q2.41506,-39.885 4.83,-79.76c0.10999,-1.92999 3.10999,-1.92999 3,0z"/>
  <path id="svg_39" fill="#fff" d="m711.90821,656.29691l52.86863,-44.57635l14.83364,-12.507c1.47791,-1.24611 -0.65345,-3.359 -2.12132,-2.12133l-52.86863,44.57636l-14.83364,12.507c-1.47791,1.2461 0.65345,3.359 2.12132,2.12132z"/>
  <path id="svg_40" fill="#fff" d="m718.65886,740.14015l38.55118,-34.01574c1.45055,-1.2799 -0.67785,-3.395 -2.12132,-2.12132l-38.55118,34.01574c-1.45055,1.2799 0.67785,3.395 2.12132,2.12132z"/>
  <path id="svg_41" fill="#fff" d="m347.65886,725.14015l38.55118,-34.01574c1.45055,-1.2799 -0.67785,-3.395 -2.12132,-2.12132l-38.55118,34.01574c-1.45055,1.2799 0.67785,3.395 2.12132,2.12132z"/>
  <path id="svg_42" fill="#fff" d="m844.58306,627.05879a29.53094,29.53094 0 0 1 25.797,13.08067c1.0541,1.60832 3.65286,0.10691 2.59041,-1.51415a32.5768,32.5768 0 0 0 -28.38744,-14.56652c-1.92218,0.09045 -1.9332,3.091 0,3l0.00003,0z"/>
  <path id="svg_43" fill="#fff" d="m424.4713,683.33233a121.12644,121.12644 0 0 1 58.043,58.8697c0.80425,1.75259 3.39079,0.23 2.59041,-1.51416a124.70778,124.70778 0 0 0 -42.6337,-50.44756a120.895,120.895 0 0 0 -16.48551,-9.49839c-1.73436,-0.8255 -3.25839,1.76021 -1.51416,2.59041l-0.00004,0z"/>
  <path id="svg_44" fill="#fff" d="m422.54411,662.47422q-3.09,17.175 -7.54,34.07a438.20428,438.20428 0 0 1 -19.86,58.35q-5.13,12.21 -10.99,24.08c-0.85,-0.53 -1.69,-1.06 -2.53,-1.6a436.84616,436.84616 0 0 0 22.94,-56.16a436.09517,436.09517 0 0 0 15.07995,-59.53c0.34005,-1.9 3.24007,-1.09 2.90005,0.79z"/>
  <path id="svg_48" fill="#fff" d="m476.7159,519.35748a1.61962,1.61962 0 0 1 -1.29594,-0.64816l-3.97339,-5.29794a1.62005,1.62005 0 1 1 2.59214,-1.944l2.59953,3.46577l6.67655,-10.01469a1.62012,1.62012 0 1 1 2.696,1.79736l-7.94678,11.92017a1.6208,1.6208 0 0 1 -1.30306,0.72095l-0.04505,0.00054z"/>
  <path id="svg_52" fill="#e6e6e6" d="m587.62209,425.78597c-0.71069,-2.09113 -3.45319,-2.48651 -5.6618,-2.48q-7.38639,0.0218 -14.75562,0.62829l0.49262,-0.56909a7.33753,7.33753 0 0 0 -4.13684,-0.46393c-1.35517,0.38447 -2.46888,1.94019 -1.85657,3.20875c0.45984,0.95269 1.74481,1.558 1.65246,2.61187c-0.15625,1.784 -3.60888,1.191 -4.146,2.89942a1.68128,1.68128 0 0 0 0.75634,1.7854a4.55692,4.55692 0 0 0 1.96161,0.62182a40.41357,40.41357 0 0 0 21.56665,-2.78076a9.0193,9.0193 0 0 0 3.18256,-1.9873a3.59464,3.59464 0 0 0 0.94459,-3.47447z"/>
 </g>
</svg>